<?xml version="1.0" standalone="no"?><!DOCTYPE svg PUBLIC "-//W3C//DTD SVG 1.1//EN" "http://www.w3.org/Graphics/SVG/1.1/DTD/svg11.dtd"><svg t="1555334294804" class="icon" style="" viewBox="0 0 1024 1024" version="1.1" xmlns="http://www.w3.org/2000/svg" p-id="4125" xmlns:xlink="http://www.w3.org/1999/xlink" width="500" height="500"><defs><style type="text/css"></style></defs><path d="M627.32924 309.906h-57.952V169.156h44.406z m0 0M419.03324 309.906h57.96V169.156H432.58124z m0 0" fill="#FC4830" p-id="4126"></path><path d="M841.92124 218.032l-99.63-99.634c-10.954-10.944-28.704-10.944-39.65 0-10.952 10.954-10.952 28.704 0 39.656l139.28 139.282z m0 0M174.59524 218.032L74.96124 118.398c-10.944-10.944-28.694-10.944-39.648 0-10.952 10.954-10.952 28.704 0 39.656l139.28 139.282z m0 0" fill="#915040" p-id="4127"></path><path d="M1008.98524 193.164c0 13.656-11.078 24.742-24.734 24.742H39.75924c-13.664 0-24.742-11.086-24.742-24.742 0-6.836 2.758-13.016 7.24-17.5a24.76 24.76 0 0 1 17.5-7.242h944.494c13.656 0 24.734 11.086 24.734 24.742z m0 0" fill="#CF8671" p-id="4128"></path><path d="M808.99324 168.42h97.476v49.486h-97.476z m0 0M141.64924 168.42h97.478v49.486H141.64724z m0 0" fill="#BE7560" p-id="4129"></path><path d="M215.14124 884.758V99.74c0-13.664-11.078-24.742-24.74-24.742s-24.744 11.08-24.744 24.742V884.76z m0 0M882.46124 884.758V99.74c0-13.664-11.07-24.742-24.734-24.742s-24.74 11.08-24.74 24.742V884.76z m0 0" fill="#CF8671" p-id="4130"></path><path d="M717.10124 759.36c-8.67 26.75-21.404 52.78-37.296 76.226H360.19724c-15.9-23.446-28.626-49.476-37.298-76.226-6.57-20.242 18.954-35.384 33.438-19.79 0.164 0.164 0.328 0.32 0.468 0.484 21.61 23.18 60.236 15.43 71.228-14.28 18.874-51.008 53.008-100.75 91.976-100.75s73.086 49.74 91.952 100.75c11 29.71 49.626 37.46 71.228 14.28l0.476-0.484c14.476-15.594 40-0.452 33.438 19.79z m0 0" fill="#FC4830" p-id="4131"></path><path d="M614.22724 835.586h-188.46c0.86-1.618 1.616-3.312 2.266-5.086 18.874-51 53.008-100.75 91.976-100.75s73.078 49.75 91.952 100.75a41.52 41.52 0 0 0 2.266 5.086z m0 0" fill="#FD8F3E" p-id="4132"></path><path d="M999.28124 914.4a108.696 108.696 0 0 0-68.398-38.782l-13.928-25.9a60.896 60.896 0 0 0-53.634-32.054H160.68924a60.896 60.896 0 0 0-53.634 32.054l-13.928 25.9a108.676 108.676 0 0 0-68.4 38.78l-6.108 7.476c-8.446 10.344-1.086 25.852 12.264 25.852h962.244c13.35 0 20.71-15.508 12.264-25.852z m0 0" fill="#DAD0CD" p-id="4133"></path><path d="M993.12724 947.726h-50.672c13.35 0 20.71-15.5 12.256-25.844l-6.092-7.484c-17.274-21.156-41.76-34.852-68.408-38.78l-13.928-25.908a60.9 60.9 0 0 0-53.634-32.046h50.672a60.88 60.88 0 0 1 53.626 32.046l13.936 25.908a108.804 108.804 0 0 1 68.408 38.78l6.092 7.484c8.454 10.344 1.094 25.844-12.258 25.844z m0 0" fill="#C1BAB8" p-id="4134"></path><path d="M401.96924 501.28h358.782a14.394 14.394 0 0 0 14.39-14.39v-53.468a14.402 14.402 0 0 0-7.46-12.618l-31.39-17.234c-24.18-13.274-43.688-33.93-54.626-59.25-17.242-39.944-56.968-67.9-103.242-67.9h-176.454c-62.092 0-112.428 50.338-112.428 112.432s50.336 112.43 112.428 112.43z m0 0" fill="#FF756E" p-id="4135"></path><path d="M606.46924 505.406c-3.484 24.14 5.486 45.406 20.04 47.508s29.172-15.758 32.656-39.9c3.484-24.132-5.484-45.404-20.04-47.506-14.546-2.1-29.17 15.766-32.656 39.9z m0 0M579.00124 297.024h-57.954V176.274c0-11.048 8.954-20 20-20h6.244a19.996 19.996 0 0 1 19.906 18.086z m0 0M370.71124 297.024h57.954V176.274c0-11.048-8.954-20-20-20h-6.242a19.996 19.996 0 0 0-19.906 18.086z m0 0" fill="#FF756E" p-id="4136"></path><path d="M1017.00924 912.4l-6.11-7.494a123.444 123.444 0 0 0-70.24-42.774l-10.494-19.522a75.84 75.84 0 0 0-32.704-31.836V458.024a15 15 0 1 0-30 0v344.78a72.784 72.784 0 0 0-4.14-0.148h-15.336V99.742A9.75 9.75 0 0 1 857.72724 90a9.748 9.748 0 0 1 9.734 9.742v292.96a15 15 0 0 0 15 15c8.29 0 15-6.71 15-15V232.9h86.79c21.906 0 39.734-17.828 39.734-39.734 0-21.914-17.828-39.742-39.734-39.742H897.46124V99.74C897.46124 77.828 879.63324 60 857.72724 60c-21.914 0-39.74 17.828-39.74 39.742v53.68h-19.462l-45.626-45.626a42.77 42.77 0 0 0-30.43-12.608c-11.5 0-22.304 4.484-30.436 12.608-12.314 12.32-15.556 30.298-9.79 45.626h-108.43a34.844 34.844 0 0 0-26.522-12.148h-6.244c-10.56 0-20.022 4.726-26.444 12.148h-79.484c-6.422-7.422-15.892-12.148-26.454-12.148h-6.242c-10.6 0-20.094 4.68-26.524 12.148H230.14124V99.74C230.14124 77.828 212.31324 60 190.40124 60 168.49124 60 150.66324 77.828 150.66324 99.742v53.68h-19.468L85.57124 107.796a42.736 42.736 0 0 0-30.43-12.608 42.724 42.724 0 0 0-30.43 12.608 42.724 42.724 0 0 0-12.608 30.43c0 7.766 2.086 15.188 5.914 21.712-10.828 7.108-18 19.336-18 33.226 0 21.906 17.828 39.734 39.74 39.734h49.19l61.71 61.712v508.72a75.774 75.774 0 0 0-56.812 39.28l-10.5 19.522A123.416 123.416 0 0 0 13.10124 904.914l-6.11 7.484c-7.61 9.312-9.124 21.852-3.968 32.712 5.156 10.866 15.828 17.616 27.852 17.616h236.468a15 15 0 1 0 0-30H30.87724c-0.282 0-0.524 0-0.75-0.476s-0.072-0.664 0.108-0.882l6.11-7.486c14.6-17.89 35.188-29.664 58.032-33.264h357.592c8.282 0 14.992-6.72 14.992-15s-6.71-15-14.992-15H118.22124l2.048-3.798a45.83 45.83 0 0 1 40.42-24.156H863.32124a45.848 45.848 0 0 1 40.422 24.156l2.04 3.798h-46.344c-8.29 0-15 6.718-15 15s6.71 15 15 15h70.194c22.844 3.592 43.422 15.374 58.032 33.264l6.11 7.486c0.18 0.218 0.328 0.406 0.1 0.882s-0.468 0.476-0.75 0.476h-660.46c-8.28 0-15 6.72-15 15s6.72 15 15 15h660.46c12.024 0 22.696-6.75 27.852-17.616 5.156-10.86 3.64-23.4-3.968-32.712zM984.25124 183.42a9.748 9.748 0 0 1 9.734 9.744 9.746 9.746 0 0 1-9.734 9.734H897.46124v-19.476z m-166.266 68.768l-19.28-19.29h19.28z m0-49.29H585.01724l-1.876-19.476h234.844z m-230.086 30h16.954l3.078 31.992a126.176 126.176 0 0 0-17.226-2.86z m125.344-85.452a13.06 13.06 0 0 1 0-18.44 12.98 12.98 0 0 1 9.22-3.82c3.484 0 6.756 1.36 9.218 3.82l24.414 24.416h-36.876zM506.04724 202.898h-62.382v-19.476h62.382z m-62.382 30h18.328v28.516h-18.328z m48.328 0h14.054v28.516h-14.054z m-89.57-61.624h6.242c2.758 0 5 2.24 5 5v120.75a15 15 0 1 0 30 0v-5.61h62.382v5.61a15 15 0 1 0 30 0V176.274c0-2.76 2.244-5 5-5h6.244c2.584 0 4.726 1.944 4.976 4.522l11.804 122.664a15.006 15.006 0 0 0 16.368 13.494 14.988 14.988 0 0 0 13.492-16.368l-0.28-2.968a97.396 97.396 0 0 1 74.24 57.64c11.992 27.78 33.72 51.382 61.172 66.452l31.08 17.072v52.5h-86.994a74.76 74.76 0 0 0-0.64-2.76 14.996 14.996 0 0 0-18.312-10.71 14.99 14.99 0 0 0-10.712 18.306c1.54 5.882 1.812 12.71 0.798 19.75-2.672 18.5-12.25 27.218-15.454 27.21-0.078 0-0.148 0-0.22-0.008-1.014-0.148-3.218-2-5.108-6.476-2.696-6.4-3.508-15.172-2.226-24.048 0.78-5.436 2.328-10.686 4.452-15.18a15 15 0 1 0-27.1-12.86 78.422 78.422 0 0 0-2.79 6.776h-53.18c-8.288 0-15 6.718-15 15s6.712 15 15 15h48.062c0.072 9.726 1.79 19.014 5.14 26.968 5.82 13.804 16.204 22.734 28.462 24.508 1.492 0.21 2.97 0.32 4.446 0.32 21.124 0 40.28-21.672 45.024-51.796h86.96c16.204 0 29.39-13.188 29.39-29.392v-53.468c0-10.726-5.844-20.6-15.25-25.766l-31.39-17.242c-21.632-11.874-38.704-30.36-48.062-52.046a127.374 127.374 0 0 0-56.22-61.508l-4.234-43.96h121.438c0.352 0.444 0.734 0.88 1.148 1.296l60.414 60.414v508.054h-102.07c6.024-12.6 11.196-25.54 15.46-38.672 5.172-15.976-1.078-32.42-15.57-40.938-14.42-8.468-31.758-5.944-43.094 6.25l-0.492 0.532c-6.57 7.046-16.172 10.118-25.672 8.204-9.5-1.908-17.17-8.44-20.514-17.478-10.672-28.836-25.242-55.094-41.016-73.92-20.07-23.954-42.556-36.61-65.016-36.61-22.468 0-44.946 12.656-65.016 36.608-15.78 18.828-30.344 45.086-41.016 73.922-3.342 9.04-11.014 15.57-20.522 17.478-9.5 1.906-19.094-1.158-25.656-8.196l-0.47-0.5c-11.374-12.234-28.71-14.766-43.124-6.29-14.492 8.516-20.75 24.96-15.57 40.93a315.796 315.796 0 0 0 15.468 38.68h-93.96V232.898h131.67l-3.484 36.22c-49.734 18.164-83.788 66.194-83.788 119.734a126.656 126.656 0 0 0 13.874 57.71c-12.266 10.266-29.22 31.406-29.22 69.884 0 8.28 6.72 15 15 15s15-6.72 15-15c0-24.376 9.08-37.946 16.056-44.774 23.384 27.28 58.054 44.61 96.72 44.61h75.374a15 15 0 1 0 0-30H401.96124c-53.718 0-97.428-43.704-97.428-97.43 0-36.548 20.74-69.742 52.226-86.32 2.016 5.07 6.71 8.866 12.508 9.42a14.996 14.996 0 0 0 16.368-13.492l11.812-122.664a4.986 4.986 0 0 1 4.976-4.522z m214.202 631.39c-25.842-55.946-60.88-87.906-96.616-87.906-35.72 0-70.774 31.968-96.632 87.906h-65.626c-8.344-15.43-15.266-31.516-20.586-47.93-1.016-3.124 0.656-4.89 2.226-5.812 2.228-1.304 4.228-1.016 5.97 0.86l0.484 0.514c13.726 14.72 33.726 21.134 53.508 17.158 19.788-3.97 35.766-17.602 42.75-36.478 16.758-45.266 47.344-90.944 77.898-90.944 30.562 0 61.148 45.68 77.9 90.944 6.982 18.876 22.96 32.508 42.748 36.478 19.79 3.968 39.79-2.44 53.516-17.164l0.484-0.516c1.734-1.876 3.742-2.156 5.96-0.86 1.58 0.93 3.244 2.688 2.228 5.82-5.32 16.422-12.242 32.508-20.58 47.93z m-33.46 0h-126.328c19.18-36.132 42.61-57.914 63.172-57.914 20.57 0 43.976 21.78 63.156 57.914zM366.57124 183.422l-1.874 19.476H230.14124v-19.476zM190.40124 90a9.75 9.75 0 0 1 9.742 9.742v702.922h-19.484V99.744A9.754 9.754 0 0 1 190.40124 90zM45.92324 129.008a12.954 12.954 0 0 1 9.22-3.82 12.98 12.98 0 0 1 9.218 3.82L88.76724 153.42H51.89124l-5.968-5.976a12.92 12.92 0 0 1-3.82-9.22 12.92 12.92 0 0 1 3.82-9.22z m-15.906 64.156a9.75 9.75 0 0 1 9.74-9.742h110.9v19.476h-110.9a9.748 9.748 0 0 1-9.74-9.734z m101.36 39.734h19.288v19.29z m0 0" p-id="4137"></path><path d="M530.74324 890.618c8.28 0 15-6.72 15-15s-6.72-15-15-15h-31.406c-8.29 0-15 6.718-15 15s6.71 15 15 15z m0 0M824.18924 917.132a15 15 0 0 0 0.086-30h-0.258c-8.242 0-14.868 6.664-14.914 14.914-0.048 8.282 6.71 15.04 14.992 15.094 0.032-0.008 0.062-0.008 0.094-0.008z m0 0M643.68124 456.376a14.992 14.992 0 0 0 20.202 0.914 14.954 14.954 0 0 0 9.594 3.476 14.96 14.96 0 0 0 10.61-4.392 15.004 15.004 0 0 0 0.914-20.202c4.914-5.89 4.618-14.672-0.914-20.204a14.996 14.996 0 0 0-20.204-0.914c-5.898-4.92-14.672-4.616-20.202 0.914s-5.828 14.306-0.914 20.204a14.996 14.996 0 0 0 0.914 20.202z m0 0M686.43124 619.094h0.07a15 15 0 0 0 15-14.93l0.024-5.43a15 15 0 0 0-14.93-15.07c-8.188-0.04-15.032 6.648-15.07 14.93l-0.024 5.43c-0.04 8.288 6.648 15.04 14.93 15.07z m0 0M686.42124 638.96h-0.068a15.004 15.004 0 0 0-15 14.93l-0.024 5.43a15.004 15.004 0 0 0 14.93 15.07h0.07a15.004 15.004 0 0 0 15-14.93l0.024-5.428a15 15 0 0 0-14.93-15.072z m0 0M696.41524 629.032a14.992 14.992 0 0 0 14.922 15.07l5.446 0.022h0.078a14.992 14.992 0 0 0 14.992-14.928 14.998 14.998 0 0 0-14.922-15.072l-5.446-0.022h-0.078a14.992 14.992 0 0 0-14.992 14.93z m0 0M655.93124 643.93l5.446 0.024h0.07a15 15 0 0 0 15-14.93 14.992 14.992 0 0 0-14.93-15.064l-5.446-0.03c-8.22-0.07-15.03 6.648-15.07 14.93a15.004 15.004 0 0 0 14.93 15.07z m0 0M370.71124 630.094h0.072a15.004 15.004 0 0 0 15-14.93l0.022-5.438a15.004 15.004 0 0 0-14.928-15.07h-0.072a15.004 15.004 0 0 0-15 14.93l-0.022 5.438a15.004 15.004 0 0 0 14.928 15.07z m0 0M370.71124 649.954h-0.078a14.998 14.998 0 0 0-15 14.92l-0.022 5.43c-0.04 8.29 6.64 15.04 14.92 15.08h0.08a15.004 15.004 0 0 0 15-14.93l0.022-5.43a14.998 14.998 0 0 0-14.92-15.07z m0 0M401.20524 625.118l-5.446-0.024h-0.07a15.004 15.004 0 0 0-15 14.93 15.004 15.004 0 0 0 14.93 15.07l5.444 0.024h0.07a15.004 15.004 0 0 0 15-14.93 15.004 15.004 0 0 0-14.928-15.07z m0 0M360.72724 640.016c0.032-8.28-6.648-15.032-14.93-15.07l-5.444-0.024h-0.07a15.004 15.004 0 0 0-15 14.93 15.004 15.004 0 0 0 14.928 15.07l5.446 0.024h0.07a15 15 0 0 0 15-14.93z m0 0" p-id="4138"></path></svg>